<?xml version="1.0" encoding="iso-8859-1"?>
<!-- Generator: Adobe Illustrator 19.0.0, SVG Export Plug-In . SVG Version: 6.00 Build 0)  -->
<svg version="1.1" id="Capa_1" xmlns="http://www.w3.org/2000/svg" xmlns:xlink="http://www.w3.org/1999/xlink" x="0px" y="0px"
	 viewBox="0 0 496.485 496.485" style="enable-background:new 0 0 496.485 496.485;" xml:space="preserve">
<rect x="7.758" y="7.758" style="fill:#FFFFFF;" width="216.436" height="216.436"/>
<path style="fill:#193651;" d="M224.194,231.952H7.758c-4.655,0-7.758-3.103-7.758-7.758V7.758C0,3.103,3.103,0,7.758,0h216.436
	c4.655,0,7.758,3.103,7.758,7.758v216.436C231.952,228.073,228.073,231.952,224.194,231.952z M15.515,216.436h200.921V15.515H15.515
	V216.436z"/>
<rect x="38.633" y="38.788" style="fill:#4FBF9F;" width="154.376" height="154.376"/>
<rect x="272.291" y="7.758" style="fill:#FFFFFF;" width="216.436" height="216.436"/>
<path style="fill:#193651;" d="M488.727,231.952H272.291c-4.655,0-7.758-3.103-7.758-7.758V7.758c0-4.655,3.103-7.758,7.758-7.758
	h216.436c4.655,0,7.758,3.103,7.758,7.758v216.436C496.485,228.073,493.382,231.952,488.727,231.952z M280.048,216.436H480.97
	V15.515H280.048V216.436z"/>
<rect x="303.321" y="38.633" style="fill:#FDBF5E;" width="154.376" height="154.376"/>
<rect x="7.758" y="272.291" style="fill:#FFFFFF;" width="216.436" height="216.436"/>
<path style="fill:#193651;" d="M224.194,496.485H7.758c-4.655,0-7.758-3.103-7.758-7.758V272.291c0-4.655,3.103-7.758,7.758-7.758
	h216.436c4.655,0,7.758,3.103,7.758,7.758v216.436C231.952,493.382,228.073,496.485,224.194,496.485z M15.515,480.97h200.921
	V280.048H15.515V480.97z"/>
<rect x="38.788" y="303.476" style="fill:#F16051;" width="154.376" height="154.376"/>
<rect x="272.291" y="272.291" style="fill:#FFFFFF;" width="216.436" height="216.436"/>
<path style="fill:#193651;" d="M488.727,496.485H272.291c-4.655,0-7.758-3.103-7.758-7.758V272.291c0-4.655,3.103-7.758,7.758-7.758
	h216.436c4.655,0,7.758,3.103,7.758,7.758v216.436C496.485,493.382,493.382,496.485,488.727,496.485z M280.048,480.97H480.97
	V280.048H280.048V480.97z"/>
<rect x="303.476" y="303.321" style="fill:#2EA2DB;" width="154.376" height="154.376"/>
<rect x="338.23" y="224.194" style="fill:#FFFFFF;" width="85.333" height="48.097"/>
<path style="fill:#193651;" d="M423.564,280.048H338.23c-4.655,0-7.758-3.103-7.758-7.758v-48.097c0-4.655,3.103-7.758,7.758-7.758
	h85.333c4.655,0,7.758,3.103,7.758,7.758v48.097C431.321,276.945,427.442,280.048,423.564,280.048z M345.988,264.533h69.818v-32.582
	h-69.818V264.533z"/>
<rect x="72.921" y="224.194" style="fill:#FFFFFF;" width="85.333" height="48.097"/>
<path style="fill:#193651;" d="M158.255,280.048H72.921c-4.655,0-7.758-3.103-7.758-7.758v-48.097c0-4.655,3.103-7.758,7.758-7.758
	h85.333c4.655,0,7.758,3.103,7.758,7.758v48.097C166.012,276.945,162.909,280.048,158.255,280.048z M80.679,264.533h69.818v-32.582
	H80.679V264.533z"/>
<rect x="224.659" y="337.92" style="fill:#FFFFFF;" width="48.097" height="85.333"/>
<path style="fill:#193651;" d="M272.291,431.321h-48.097c-4.655,0-7.758-3.103-7.758-7.758V338.23c0-4.655,3.103-7.758,7.758-7.758
	h48.097c4.655,0,7.758,3.103,7.758,7.758v85.333C280.048,427.442,276.945,431.321,272.291,431.321z M231.952,415.806h32.582v-69.818
	h-32.582L231.952,415.806L231.952,415.806z"/>
<rect x="224.504" y="73.232" style="fill:#FFFFFF;" width="48.097" height="85.333"/>
<g>
	<path style="fill:#193651;" d="M272.291,166.012h-48.097c-4.655,0-7.758-3.103-7.758-7.758V72.921c0-4.655,3.103-7.758,7.758-7.758
		h48.097c4.655,0,7.758,3.103,7.758,7.758v85.333C280.048,162.909,276.945,166.012,272.291,166.012z M231.952,150.497h32.582V80.679
		h-32.582L231.952,150.497L231.952,150.497z"/>
	<path style="fill:#193651;" d="M119.467,138.861c6.982,0,11.636-1.552,18.618-7.758l6.982,6.982
		c-6.982,7.758-15.515,11.636-24.824,11.636c-20.17,0-34.133-13.964-34.133-33.358s14.739-34.133,34.909-34.133
		c10.085,0,18.618,3.879,25.6,10.861l-6.982,7.758c-6.206-5.43-10.861-7.758-18.618-7.758c-13.188,0-23.273,9.309-23.273,22.497
		C96.97,129.552,107.83,138.861,119.467,138.861z"/>
	<path style="fill:#193651;" d="M404.945,139.636c-6.206,6.206-14.739,9.309-24.048,9.309c-9.309,0-17.842-3.103-24.048-9.309
		c-6.206-6.206-10.085-14.739-10.085-24.048s3.103-17.842,10.085-24.048c6.206-6.206,14.739-9.309,24.048-9.309
		s17.842,3.103,24.048,9.309s10.085,14.739,10.085,24.048C415.03,125.673,411.927,133.43,404.945,139.636z M397.188,99.297
		c-4.655-4.655-10.085-6.982-16.291-6.982s-11.636,2.327-16.291,6.982c-4.655,4.655-6.982,10.085-6.982,17.067
		c0,6.206,2.327,12.412,6.982,17.067c4.655,4.655,10.085,6.982,16.291,6.982s11.636-2.327,16.291-6.982
		c4.655-4.655,6.982-10.085,6.982-17.067C403.394,109.382,401.067,103.952,397.188,99.297z"/>
	<path style="fill:#193651;" d="M135.758,356.849c6.206,5.43,9.309,13.188,9.309,24.048c0,10.085-3.103,17.842-9.309,24.048
		c-6.206,6.206-15.515,8.533-27.927,8.533H86.109v-65.164h22.497C120.242,348.315,129.552,350.642,135.758,356.849z
		 M134.206,380.897c0-14.739-8.533-22.497-25.6-22.497H97.745v44.218h12.412c7.758,0,13.964-1.552,17.842-5.43
		C131.879,393.309,134.206,387.879,134.206,380.897z"/>
	<path style="fill:#193651;" d="M402.618,348.315V358.4h-34.909v17.067h31.03v10.085h-31.03v17.067h35.685v10.085h-46.545v-65.164
		h45.77V348.315z"/>
	<rect x="321.164" y="54.303" style="fill:#193651;" width="15.515" height="15.515"/>
</g>
<g>
	<rect x="424.339" y="54.303" style="fill:#193651;" width="15.515" height="15.515"/>
	<rect x="321.164" y="162.133" style="fill:#193651;" width="15.515" height="15.515"/>
</g>
<g>
	<rect x="424.339" y="162.133" style="fill:#193651;" width="15.515" height="15.515"/>
	<rect x="56.63" y="54.303" style="fill:#193651;" width="15.515" height="15.515"/>
	<rect x="159.806" y="54.303" style="fill:#193651;" width="15.515" height="15.515"/>
</g>
<g>
	<rect x="56.63" y="162.133" style="fill:#193651;" width="15.515" height="15.515"/>
	<rect x="159.806" y="162.133" style="fill:#193651;" width="15.515" height="15.515"/>
	<rect x="321.164" y="318.836" style="fill:#193651;" width="15.515" height="15.515"/>
</g>
<g>
	<rect x="424.339" y="318.836" style="fill:#193651;" width="15.515" height="15.515"/>
	<rect x="321.164" y="426.667" style="fill:#193651;" width="15.515" height="15.515"/>
</g>
<g>
	<rect x="424.339" y="426.667" style="fill:#193651;" width="15.515" height="15.515"/>
	<rect x="56.63" y="318.836" style="fill:#193651;" width="15.515" height="15.515"/>
	<rect x="159.806" y="318.836" style="fill:#193651;" width="15.515" height="15.515"/>
</g>
<g>
	<rect x="56.63" y="426.667" style="fill:#193651;" width="15.515" height="15.515"/>
	<rect x="159.806" y="426.667" style="fill:#193651;" width="15.515" height="15.515"/>
</g>
<g>
</g>
<g>
</g>
<g>
</g>
<g>
</g>
<g>
</g>
<g>
</g>
<g>
</g>
<g>
</g>
<g>
</g>
<g>
</g>
<g>
</g>
<g>
</g>
<g>
</g>
<g>
</g>
<g>
</g>
</svg>
